<?xml version="1.0" encoding="UTF-8" standalone="no"?>
<!-- Created with Inkscape (http://www.inkscape.org/) -->

<svg
   width="201.98904mm"
   height="49.80072mm"
   viewBox="0 0 201.98905 49.80072"
   version="1.1"
   id="svg5"
   inkscape:version="1.1.2 (b8e25be833, 2022-02-05)"
   sodipodi:docname="lof.svg"
   xmlns:inkscape="http://www.inkscape.org/namespaces/inkscape"
   xmlns:sodipodi="http://sodipodi.sourceforge.net/DTD/sodipodi-0.dtd"
   xmlns="http://www.w3.org/2000/svg"
   xmlns:svg="http://www.w3.org/2000/svg">
  <sodipodi:namedview
     id="namedview7"
     pagecolor="#505050"
     bordercolor="#ffffff"
     borderopacity="1"
     inkscape:pageshadow="0"
     inkscape:pageopacity="0"
     inkscape:pagecheckerboard="1"
     inkscape:document-units="mm"
     showgrid="false"
     showguides="true"
     inkscape:guide-bbox="true"
     inkscape:zoom="1.0368618"
     inkscape:cx="357.5189"
     inkscape:cy="161.60626"
     inkscape:window-width="1920"
     inkscape:window-height="1009"
     inkscape:window-x="-8"
     inkscape:window-y="-8"
     inkscape:window-maximized="1"
     inkscape:current-layer="layer1"
     fit-margin-top="0"
     fit-margin-left="0"
     fit-margin-right="0"
     fit-margin-bottom="0">
    <sodipodi:guide
       position="6.9284634,4.8229104e-06"
       orientation="0,-1"
       id="guide1901" />
    <sodipodi:guide
       position="6.2067134,49.800726"
       orientation="0,-1"
       id="guide2718" />
    <sodipodi:guide
       position="6.2067134,49.800726"
       orientation="1,0"
       id="guide9283" />
    <sodipodi:guide
       position="34.715824,4.8229104e-06"
       orientation="1,0"
       id="guide9285" />
    <sodipodi:guide
       position="193.13988,49.800736"
       orientation="1,0"
       id="guide9287" />
    <sodipodi:guide
       position="166.07427,4.8229104e-06"
       orientation="1,0"
       id="guide9289" />
    <sodipodi:guide
       position="202.87578,39.922841"
       orientation="1,0"
       id="guide12772" />
    <sodipodi:guide
       position="-1.1989469,34.148844"
       orientation="1,0"
       id="guide12774" />
  </sodipodi:namedview>
  <defs
     id="defs2">
    <rect
       x="165.03632"
       y="461.0105"
       width="484.19742"
       height="184.13142"
       id="rect10612" />
  </defs>
  <g
     inkscape:label="Capa 1"
     inkscape:groupmode="layer"
     id="layer1"
     transform="translate(-5.7021553,-114.03645)">
    <path
       id="rect846"
       style="fill:#325acb;fill-opacity:1;stroke:none;stroke-width:2.465;stroke-linecap:round;stroke-linejoin:round"
       d="m 13.10782,114.03645 h 186.93317 l -27.06561,49.80072 H 41.616934 Z"
       sodipodi:nodetypes="ccccc" />
    <g
       aria-label="LA ORDEN
 
FRIKI"
       transform="matrix(0.26458333,0,0,0.26458333,-2.294199,5.0522479)"
       id="text10610"
       style="font-size:40px;line-height:0.95;font-family:'Deep Shadow';-inkscape-font-specification:'Deep Shadow, Normal';text-align:center;white-space:pre;shape-inside:url(#rect10612);stroke-width:1.00157">
      <path
         d="m 258.55176,436.91684 h 8.45703 q 4.31641,0 4.31641,4.3164 v 25.35157 h 8.45703 q 4.14062,0 4.14062,4.14062 v 8.30078 q 0,2.48047 -2.57812,7.03125 -5.50782,9.53125 -6.69922,10.70313 -1.36719,0.66406 -2.83203,0.66406 h -21.03516 q -4.31641,0 -4.31641,-4.49219 v -37.61719 q 0,-2.16796 1.81641,-4.80468 6.46484,-11.79688 7.12891,-12.59766 1.23047,-0.99609 3.14453,-0.99609 z m -0.64453,3.65234 v 39.27734 h 22.36328 v -9.78515 h -12.59766 v -29.49219 z"
         id="path8464" />
      <path
         d="m 308.04395,437.09262 h 11.42578 q 2.7539,0 3.80859,1.97265 9.29688,39.27735 9.78516,40.9375 0,0.9375 -3.65235,7.30469 -4.6875,8.63281 -5.625,9.45313 -1.09375,0.82031 -2.8125,0.82031 h -9.6289 q -2.91016,0 -3.8086,-2.14844 -0.33203,-1.03515 -0.82031,-3.47656 h -0.33203 q -0.44922,0.27344 -2.65625,4.47266 -1.40625,1.15234 -3.32031,1.15234 h -9.4336 q -4.16015,-0.33203 -4.3164,-3.65234 9.45312,-40.48829 9.9414,-41.42579 7.57813,-13.75 8.125,-14.43359 1.58203,-0.97656 3.32032,-0.97656 z m -0.83985,3.63281 -9.10156,39.27734 h 10.76172 q 1.17187,-5.625 1.5039,-5.625 h 6.95313 l 1.15234,5.625 h 10.9375 q -4.6289,-19.23828 -9.27734,-39.27734 z m 6.58203,18.30078 1.81641,6.83594 h -3.59375 z"
         id="path8466" />
      <path
         d="m 368.70801,436.91684 h 13.57422 q 2.69531,0 5.72265,3.08593 3.39844,3.32032 3.39844,5.52735 v 28.67187 q 0,2.10938 -2.07031,6.48438 -6.07422,9.98047 -7.53906,11.58203 -4.94141,5.15625 -6.28907,5.15625 h -14.58984 q -2.85156,0 -5.46875,-2.98828 -3.65234,-3.28125 -3.65234,-6.13281 V 459.4559 l 0.15625,-0.82031 h -0.15625 q 8.41796,-15.21485 8.94531,-15.91797 5.50781,-5.625 6.46484,-5.625 0.89844,-0.17578 1.50391,-0.17578 z m -5.46875,8.45703 v 29.66797 q 0,0.19531 4.80469,4.80468 h 14.90234 q 0.21484,0 4.82422,-4.80468 v -29.66797 q 0,-0.21485 -4.82422,-4.80469 h -14.90234 q -0.21485,0 -4.80469,4.80469 z m 9.76562,4.96094 h 4.98047 v 19.72656 h -4.98047 z"
         id="path8468" />
      <path
         d="m 406.07129,437.09262 h 18.39844 q 2.91015,0 5.8789,3.3789 3.24219,2.73438 3.24219,5.56641 v 13.92578 q 0,2.61719 -2.83203,4.62891 -0.82031,0.85937 -0.82031,1.17187 4.80468,12.5586 5.13672,14.23828 0,1.21094 -2.30469,5.74219 -4.98047,8.4961 -6.3086,10.50781 -1.28906,1.32813 -3.47656,1.32813 h -9.6289 q -2.34375,0 -3.14454,-1.15234 -1.5039,1.15234 -3.47656,1.15234 h -8.45703 q -4.14062,0 -4.14062,-4.14063 v -38.28125 q 0,-2.16796 3.80859,-8.125 4.43359,-8.47656 5.3125,-9.12109 0.97656,-0.82031 2.8125,-0.82031 z m -0.66406,3.63281 v 39.27734 h 9.78515 v -14.41406 q 0.66407,0.6836 5.13672,14.41406 h 11.09375 l -5.625,-15.41015 q 0.3711,-0.13672 4.31641,-4.29688 V 445.7059 q 0,-0.21484 -4.98047,-4.98047 z m 9.9414,9.60938 h 4.98047 v 4.98046 h -4.98047 z"
         id="path8470" />
      <path
         d="m 449.89941,437.09262 h 18.39844 q 2.98828,0 6.3086,3.30078 2.8125,2.85156 2.8125,5.64453 v 28.00781 q 0,2.75391 -1.83594,6.23047 -6.36719,10.80078 -7.61719,11.99219 -5.07812,5.3125 -6.44531,5.3125 h -19.39453 q -4.31641,0 -4.31641,-4.80469 v -36.95312 q 0,-2.69532 2.48047,-6.3086 6.15234,-11.48437 6.79687,-11.60156 0.97657,-0.82031 2.8125,-0.82031 z m -0.64453,3.63281 v 39.27734 h 19.70703 q 0.21485,0 4.82422,-4.80468 v -29.66797 q 0,-0.19531 -4.82422,-4.80469 z m 9.76563,9.78516 h 4.98047 v 19.72656 h -4.98047 z"
         id="path8472" />
      <path
         d="m 492.24316,437.09262 h 23.37891 q 4.47266,0 4.47266,4.47265 v 8.28125 q 0,2.48047 -2.65625,6.28907 -0.9961,1.93359 -0.9961,2.32422 v 6.30859 q 0,0.83984 -0.3125,1.99219 3.96485,0 3.96485,4.14062 v 7.79297 q 0,3.16406 -1.15235,5.21484 -6.97265,11.9336 -7.79297,12.67579 -1.13281,0.99609 -3.14453,0.99609 h -23.53515 q -4.31641,0 -4.31641,-4.80469 v -36.95312 q 0,-2.69532 2.48047,-6.3086 6.15234,-11.48437 6.79687,-11.60156 0.97657,-0.82031 2.8125,-0.82031 z m -0.64453,3.63281 v 39.27734 h 24.84375 v -9.76562 h -15.07812 v -4.98047 h 11.60156 v -9.76562 h -11.60156 v -4.98047 h 15.07812 v -9.78516 z"
         id="path8474" />
      <path
         d="m 534.91895,436.91684 h 8.45703 q 3.41797,0 4.64843,3.32031 0.9961,1.54297 0.9961,1.81641 h 0.15625 q 1.91406,-5.13672 5.13672,-5.13672 h 8.78906 q 4.31641,0 4.31641,4.3164 v 37.94922 q 0,1.9336 -1.99219,4.98047 l -6.79688,12.08984 q -1.25,1.17188 -3.32031,1.17188 h -8.45703 q -3.55469,0 -5.13672,-3.73047 -0.48828,-1.42578 -0.66406,-1.42578 -2.01172,5.15625 -4.80469,5.15625 h -9.10156 q -4.31641,0 -4.31641,-4.82422 v -36.95312 q 0,-2.46094 2.14844,-5.64454 6.28906,-11.40625 6.97266,-12.24609 1.40625,-0.83984 2.96875,-0.83984 z m -0.64454,3.65234 v 39.27734 h 9.76563 v -17.07031 q 0.99609,1.15235 9.78516,17.07031 h 9.9414 v -39.27734 h -9.78515 v 17.22656 q -1.69922,-2.53906 -9.76563,-17.22656 z"
         id="path8476" />
      <path
         d="m 316.0127,513.09262 h 23.3789 q 4.31641,0 4.31641,4.47265 v 7.94922 q 0,2.38282 -2.65625,6.46485 -0.9961,1.66015 -0.9961,2.14843 v 6.3086 q 0,2.38281 -1.99218,4.80469 -6.48438,12.28515 -7.28516,12.7539 -0.50781,0.50781 -3.14453,0.9961 -6.34766,11.73828 -7.63672,13.4375 -1.25,1.15234 -3.32031,1.15234 h -8.4375 q -4.31641,0 -4.31641,-4.80469 v -36.95312 q 0,-2.69532 2.48047,-6.3086 6.15234,-11.48437 6.79688,-11.60156 0.97656,-0.82031 2.8125,-0.82031 z m -0.64454,3.63281 v 39.27734 h 9.76563 v -14.74609 h 11.26953 v -9.76562 h -11.26953 v -4.98047 h 14.92187 v -9.78516 z"
         id="path8478" />
      <path
         d="m 358.37598,513.09262 h 18.39843 q 2.91016,0 5.87891,3.3789 3.24219,2.73438 3.24219,5.56641 v 13.92578 q 0,2.61719 -2.83203,4.62891 -0.82032,0.85937 -0.82032,1.17187 4.80469,12.5586 5.13672,14.23828 0,1.21094 -2.30468,5.74219 -4.98047,8.4961 -6.3086,10.50781 -1.28906,1.32813 -3.47656,1.32813 h -9.62891 q -2.34375,0 -3.14453,-1.15234 -1.5039,1.15234 -3.47656,1.15234 h -8.45703 q -4.14063,0 -4.14063,-4.14063 v -38.28125 q 0,-2.16796 3.8086,-8.125 4.43359,-8.47656 5.3125,-9.12109 0.97656,-0.82031 2.8125,-0.82031 z m -0.66407,3.63281 v 39.27734 h 9.78516 v -14.41406 q 0.66406,0.6836 5.13672,14.41406 h 11.09375 l -5.625,-15.41015 q 0.37109,-0.13672 4.31641,-4.29688 V 521.7059 q 0,-0.21484 -4.98047,-4.98047 z m 9.94141,9.60938 h 4.98047 v 4.98046 h -4.98047 z"
         id="path8480" />
      <path
         d="m 402.2041,512.91684 h 18.73047 q 4.16016,0 4.16016,4.14062 v 8.63281 q 0,2.34375 -2.32422,5.46875 -2.8125,5.25391 -2.8125,5.625 v 5.64454 h 0.82031 q 4.31641,0 4.31641,4.14062 v 8.78906 q 0,2.07032 -2.32422,5.46875 -2.46094,4.60938 -6.46485,11.60157 -1.42578,0.99609 -3.14453,0.99609 h -18.73047 q -4.3164,0 -4.3164,-4.82422 v -7.61719 q 0,-2.28515 2.32422,-5.80078 2.8125,-4.96094 2.8125,-5.46875 v -5.80078 h -0.66407 q -4.47265,0 -4.47265,-4.64844 v -7.61718 q 0,-2.69532 2.48047,-6.28907 6.15234,-11.48437 6.79687,-11.60156 0.97656,-0.83984 2.8125,-0.83984 z m -0.64453,3.65234 v 9.76563 h 4.96094 v 19.72656 h -4.96094 v 9.78515 h 20.03906 v -9.78515 h -4.96093 q -0.33204,0 -0.33204,-0.33203 v -19.0625 q 0.0391,-0.33203 0.33204,-0.33203 h 4.96093 v -9.76563 z"
         id="path8482" />
      <path
         d="m 439.91895,512.91684 h 9.29687 q 2.96875,0 3.96484,2.32422 0,0.11718 0.17579,0.99609 h 0.15625 q 1.01562,-3.14453 3.0664,-3.32031 0.42969,0 1.40625,0 h 9.96094 q 3.26172,0 4.29687,2.96875 0.0391,0.3125 0,0.50781 0,1.25 -4.80468,9.78516 -4.19922,8.18359 -5.29297,9.9414 8.28125,15.41016 9.9414,19.23828 v 0.64453 q 0,1.26954 -2.8125,5.64454 -5.48828,10.11718 -6.13281,10.9375 -1.52344,0.83984 -2.98828,0.83984 h -9.94141 q -3.51562,0 -4.47265,-3.32031 h -0.17578 q 0,2.34375 -3.14453,3.32031 h -10.27344 q -4.31641,0 -4.31641,-4.49219 v -37.61719 q 0,-2.16796 1.81641,-4.80468 6.46484,-11.79688 7.1289,-12.59766 1.23047,-0.99609 3.14454,-0.99609 z m -0.64454,3.65234 v 39.27734 h 10.60547 v -14.41406 q 0.33203,0 7.28516,14.41406 h 11.26953 v -0.15625 q -9.27734,-17.40234 -10.27344,-19.57031 9.33594,-17.4414 10.27344,-19.55078 h -11.26953 l -7.12891,14.58984 h -0.15625 v -14.58984 z"
         id="path8484" />
      <path
         d="m 487.06738,512.91684 h 18.73047 q 4.16016,0 4.16016,4.14062 v 8.63281 q 0,2.34375 -2.32422,5.46875 -2.8125,5.25391 -2.8125,5.625 v 5.64454 h 0.82031 q 4.31641,0 4.31641,4.14062 v 8.78906 q 0,2.07032 -2.32422,5.46875 -2.46094,4.60938 -6.46484,11.60157 -1.42579,0.99609 -3.14454,0.99609 h -18.73046 q -4.31641,0 -4.31641,-4.82422 v -7.61719 q 0,-2.28515 2.32422,-5.80078 2.8125,-4.96094 2.8125,-5.46875 v -5.80078 h -0.66406 q -4.47266,0 -4.47266,-4.64844 v -7.61718 q 0,-2.69532 2.48047,-6.28907 6.15234,-11.48437 6.79687,-11.60156 0.97657,-0.83984 2.8125,-0.83984 z m -0.64453,3.65234 v 9.76563 h 4.96094 v 19.72656 h -4.96094 v 9.78515 h 20.03906 v -9.78515 h -4.96093 q -0.33203,0 -0.33203,-0.33203 v -19.0625 q 0.0391,-0.33203 0.33203,-0.33203 h 4.96093 v -9.76563 z"
         id="path8486" />
    </g>
    <path
       style="fill:#fdfdfd;fill-opacity:1;stroke-width:1.00158;stroke-linecap:round;stroke-linejoin:round"
       d="m 249.5511,479.331 v -19.28897 h 4.58113 4.58113 v 14.70784 14.70784 h 6.26892 6.26892 v 4.58114 4.58113 H 260.40115 249.5511 Z"
       id="path8544"
       transform="scale(0.26458333)" />
    <path
       style="fill:#fdfdfd;fill-opacity:1;stroke-width:1.00158;stroke-linecap:round;stroke-linejoin:round"
       d="m 289.80886,498.49942 c 0.11158,-0.33153 2.06888,-8.74031 4.34956,-18.68619 2.28068,-9.94588 4.25871,-18.46317 4.39562,-18.92731 0.22044,-0.74729 0.96179,-0.84389 6.47617,-0.84389 6.06147,0 6.23396,0.0289 6.48008,1.085 0.13907,0.59676 2.20472,9.3233 4.59032,19.39232 2.38561,10.06902 4.33747,18.3693 4.33747,18.44508 0,0.0758 -2.36237,0.13777 -5.24971,0.13777 h -5.24972 l -0.33466,-2.23166 c -0.54457,-3.63151 -0.44509,-3.55503 -4.62441,-3.55503 h -3.78194 l -0.56923,2.89335 -0.56923,2.89334 h -5.2266 c -3.96798,0 -5.17774,-0.14515 -5.02372,-0.60278 z m 17.12694,-13.8854 c 0,-1.35568 -1.62382,-6.74014 -1.92955,-6.39825 -0.19275,0.21554 -0.60676,1.4769 -0.92004,2.80302 -0.31328,1.32612 -0.6829,2.79087 -0.8214,3.25501 -0.21085,0.70666 0.0672,0.8439 1.7096,0.8439 1.07876,0 1.96139,-0.22666 1.96139,-0.50368 z"
       id="path8694"
       transform="scale(0.26458333)" />
    <path
       style="fill:#fdfdfd;fill-opacity:1;stroke-width:1.00158;stroke-linecap:round;stroke-linejoin:round"
       d="m 356.94845,496.31285 -2.27244,-2.30713 v -14.70941 -14.7094 l 2.30713,-2.27244 2.30713,-2.27244 h 7.47604 7.47604 l 2.27244,2.30713 2.27244,2.30713 v 14.70941 14.7094 l -2.30713,2.27244 -2.30713,2.27244 h -7.47604 -7.47605 z M 369.62496,479.331 v -10.12671 h -2.65223 -2.65223 v 10.12671 10.12671 h 2.65223 2.65223 z"
       id="path8733"
       transform="scale(0.26458333)" />
    <path
       style="fill:#fdfdfd;fill-opacity:1;stroke-width:1.00158;stroke-linecap:round;stroke-linejoin:round"
       d="m 397.11175,479.57212 v -19.53009 h 9.54041 9.5404 l 2.5152,2.54684 2.51521,2.54684 v 6.96053 6.96052 l -2.22303,2.25697 -2.22303,2.25696 2.70526,7.3179 c 1.48788,4.02484 2.70525,7.52677 2.70525,7.78207 0,0.27685 -2.0648,0.40893 -5.1164,0.3273 l -5.11639,-0.13687 -2.34406,-6.71301 c -1.28923,-3.69215 -2.56737,-6.93632 -2.84031,-7.20925 -0.34018,-0.34018 -0.49625,1.80895 -0.49625,6.83356 v 7.32981 h -4.58113 -4.58113 z m 14.94896,-7.71559 v -2.65224 h -2.89335 -2.89335 v 2.65224 2.65223 h 2.89335 2.89335 z"
       id="path8772"
       transform="scale(0.26458333)" />
    <path
       style="fill:#fdfdfd;fill-opacity:1;stroke-width:1.00158;stroke-linecap:round;stroke-linejoin:round"
       d="m 440.99417,479.57212 v -19.53009 h 9.5404 9.54041 l 2.5152,2.54684 2.51521,2.54684 v 14.46804 14.46804 l -2.54685,2.51521 -2.54684,2.5152 h -9.50876 -9.50877 z M 455.4609,479.331 v -10.12671 h -2.65224 -2.65223 v 10.12671 10.12671 h 2.65223 2.65224 z"
       id="path8811"
       transform="scale(0.26458333)" />
    <path
       style="fill:#fdfdfd;fill-opacity:1;stroke-width:1.00158;stroke-linecap:round;stroke-linejoin:round"
       d="m 482.94769,479.57212 v -19.53009 h 12.29672 12.29672 v 4.58113 4.58113 h -7.47448 -7.47448 v 2.89335 2.89334 h 5.7867 5.78669 v 4.58114 4.58113 h -5.78669 -5.7867 v 2.65223 2.65223 h 7.47448 7.47448 v 4.82225 4.82224 h -12.29672 -12.29672 z"
       id="path8850"
       transform="scale(0.26458333)" />
    <path
       style="fill:#fdfdfd;fill-opacity:1;stroke-width:1.00158;stroke-linecap:round;stroke-linejoin:round"
       d="m 525.86565,479.331 v -19.28897 h 4.76718 4.76718 l 4.75294,8.43893 c 2.61411,4.64141 4.9174,8.43892 5.11842,8.43892 0.20101,0 0.36548,-3.79751 0.36548,-8.43892 v -8.43893 h 4.58113 4.58113 v 19.28897 19.28898 h -4.76096 -4.76096 l -3.85981,-6.8717 c -5.48149,-9.75881 -5.62666,-9.99972 -6.0278,-10.00311 -0.19891,-0.002 -0.36166,3.79447 -0.36166,8.43588 v 8.43893 h -4.58114 -4.58113 z"
       id="path8889"
       transform="scale(0.26458333)" />
    <path
       style="fill:#fdfdfd;fill-opacity:1;stroke-width:1.00158;stroke-linecap:round;stroke-linejoin:round"
       d="m 478.12544,569.98918 v -4.82224 h 2.41112 2.41113 v -9.8856 -9.8856 h -2.41113 -2.41112 v -4.82224 -4.82225 h 9.64449 9.64449 v 4.82225 4.82224 h -2.65224 -2.65223 v 9.8856 9.8856 h 2.65223 2.65224 v 4.82224 4.82224 h -9.64449 -9.64449 z"
       id="path8928"
       transform="scale(0.26458333)" />
    <path
       style="fill:#fdfdfd;fill-opacity:1;stroke-width:1.00158;stroke-linecap:round;stroke-linejoin:round"
       d="m 430.86746,555.28134 v -19.53009 h 5.05111 5.05111 l 0.1328,7.59504 0.1328,7.59503 3.71605,-7.59503 3.71605,-7.59504 h 5.3305 5.33049 l -2.12954,4.21947 c -1.17125,2.3207 -3.44954,6.69894 -5.06287,9.72941 l -2.93334,5.50995 4.63548,8.95678 c 2.54951,4.92623 4.82563,9.16293 5.05804,9.41489 0.95402,1.0343 0.17886,1.22967 -4.8789,1.22967 h -5.30145 l -3.74025,-7.35392 -3.74026,-7.35392 -0.13312,7.35392 -0.13311,7.35392 h -5.0508 -5.05079 z"
       id="path8967"
       transform="scale(0.26458333)" />
    <path
       style="fill:#fdfdfd;fill-opacity:1;stroke-width:1.00158;stroke-linecap:round;stroke-linejoin:round"
       d="m 393.25396,569.98918 v -4.82224 h 2.41112 2.41112 v -9.8856 -9.8856 h -2.41112 -2.41112 v -4.82224 -4.82225 h 9.64448 9.64449 v 4.82225 4.82224 h -2.65223 -2.65224 v 9.8856 9.8856 h 2.65224 2.65223 v 4.82224 4.82224 h -9.64449 -9.64448 z"
       id="path9006"
       transform="scale(0.26458333)" />
    <path
       style="fill:#fdfdfd;fill-opacity:1;stroke-width:1.00158;stroke-linecap:round;stroke-linejoin:round"
       d="m 349.37154,555.52245 v -19.28897 h 9.78317 9.78317 l 2.27244,2.30713 2.27244,2.30713 v 7.20023 7.20024 l -2.17471,2.20791 -2.17471,2.2079 2.65151,7.21204 c 1.45832,3.96661 2.65394,7.37478 2.65693,7.5737 0.003,0.19891 -2.33293,0.36166 -5.19093,0.36166 h -5.19635 l -2.30912,-6.98294 c -1.27001,-3.84063 -2.51217,-7.10845 -2.76035,-7.26183 -0.27252,-0.16843 -0.45123,2.59707 -0.45123,6.98295 v 7.26182 h -4.58113 -4.58113 z m 14.94896,-7.47448 v -2.65223 h -2.89335 -2.89335 v 2.65223 2.65224 h 2.89335 2.89335 z"
       id="path9045"
       transform="scale(0.26458333)" />
    <path
       style="fill:#fdfdfd;fill-opacity:1;stroke-width:1.00158;stroke-linecap:round;stroke-linejoin:round"
       d="m 306.9358,555.52245 v -19.28897 h 12.05561 12.05561 v 4.58113 4.58113 h -7.47448 -7.47448 v 2.65223 2.65224 h 5.78669 5.7867 v 4.82224 4.82224 h -5.7867 -5.78669 v 7.23337 7.23336 h -4.58113 -4.58113 z"
       id="path9084"
       transform="scale(0.26458333)" />
    <path
       id="rect12776"
       style="fill:#121212;fill-opacity:1;stroke-width:2.365;stroke-linecap:round;stroke-linejoin:round"
       d="M 5.7021553,114.03645 H 13.10782 l 28.509111,49.80072 h -7.405666 z"
       sodipodi:nodetypes="ccccc" />
    <path
       id="rect12776-3"
       style="fill:#121212;fill-opacity:1;stroke-width:2.365;stroke-linecap:round;stroke-linejoin:round"
       d="m 207.6912,114.03645 h -7.65021 l -28.26457,49.80072 h 7.40567 z"
       sodipodi:nodetypes="ccccc" />
  </g>
</svg>
